<?xml version="1.0" standalone="no"?>
<!DOCTYPE svg PUBLIC "-//W3C//DTD SVG 20010904//EN"
 "http://www.w3.org/TR/2001/REC-SVG-20010904/DTD/svg10.dtd">
<svg version="1.0" xmlns="http://www.w3.org/2000/svg"
 width="725.000000pt" height="247.000000pt" viewBox="0 0 725.000000 247.000000"
 preserveAspectRatio="xMidYMid meet">

<g transform="translate(0.000000,247.000000) scale(0.100000,-0.100000)"
fill="#000000" stroke="none">
<path d="M2380 2109 c-32 -13 -78 -56 -96 -91 -23 -44 -18 -125 11 -174 42
-71 156 -106 242 -73 118 44 153 212 61 295 -55 51 -151 69 -218 43z"/>
<path d="M3062 2099 c-132 -66 -132 -253 1 -320 60 -31 160 -24 212 15 43 33
74 95 75 149 0 41 -27 102 -57 129 -55 50 -159 62 -231 27z"/>
<path d="M685 1668 c-3 -7 -4 -305 -3 -663 l3 -650 315 0 315 0 3 203 2 202
240 0 240 0 0 190 0 190 -237 2 -238 3 -3 63 c-2 45 1 62 10 63 7 0 153 0 323
-1 171 -1 323 2 338 5 l27 7 0 199 0 199 -665 0 c-523 0 -667 -3 -670 -12z"/>
<path d="M2144 1665 c-3 -8 -4 -182 -2 -387 5 -412 8 -430 72 -563 79 -161
253 -297 444 -346 153 -39 321 -17 479 62 152 76 267 209 327 378 l31 86 3
393 3 392 -315 0 -316 0 0 -331 c0 -208 -4 -337 -10 -350 -14 -26 -66 -26 -80
0 -6 13 -10 142 -10 350 l0 331 -310 0 c-263 0 -311 -2 -316 -15z"/>
<path d="M3650 1015 l0 -665 283 2 282 3 5 74 5 74 55 -74 55 -74 308 -3 c265
-2 308 0 313 13 4 9 -53 100 -145 234 -83 121 -151 221 -151 224 0 3 20 17 44
31 68 40 134 113 174 195 36 74 37 77 37 190 -1 97 -5 125 -24 171 -46 112
-128 194 -241 242 -55 23 -59 23 -527 26 l-473 3 0 -666z m648 289 c17 -12 22
-25 22 -58 0 -53 -16 -68 -67 -64 l-38 3 -3 53 c-2 31 2 60 9 68 15 18 49 18
77 -2z"/>
<path d="M5555 1660 c-38 -10 -91 -27 -118 -39 -132 -57 -262 -181 -327 -313
-65 -133 -70 -172 -70 -590 l0 -368 315 0 315 0 0 339 c0 369 -1 366 57 359
l28 -3 5 -345 c3 -190 7 -346 8 -347 1 -2 142 -3 313 -3 l310 0 -3 407 -3 408
-27 73 c-75 208 -258 369 -483 427 -81 21 -232 19 -320 -5z"/>
<path d="M6665 711 c-79 -20 -130 -69 -146 -142 -19 -81 30 -172 108 -205 64
-27 166 -11 217 34 28 25 56 91 56 135 0 114 -120 205 -235 178z"/>
</g>
</svg>
